<svg width="28" height="14" viewBox="0 0 28 14" fill="none" xmlns="http://www.w3.org/2000/svg">

    <!-- Dynamic Island -->
    <g id="Battery">
        <rect id="Capacity" x="2.20001" y="2.60001" width="21" height="9" rx="2.5" fill="#FCFCFC" />
        <rect id="Border" opacity="0.35" x="0.700012" y="1.10001" width="24" height="12" rx="3.8"
            stroke="#FCFCFC" />
        <path id="Cap" opacity="0.4"
            d="M26.3 5.10001V9.10001C27.1047 8.76123 27.6281 7.97314 27.6281 7.10001C27.6281 6.22687 27.1047 5.43878 26.3 5.10001Z"
            fill="#FCFCFC" />
        <defs>
            <clipPath id="clip0_8908_166">
                <rect width="27.428" height="13" fill="white"
                    transform="translate(0.200012 0.600006)" />
            </clipPath>
        </defs>

    </g>

    <g id="WI-FI">
        <path id="WiFi"
            d="M9.27131 2.62062C11.7584 2.62072 14.1504 3.52573 15.9529 5.14859C16.0887 5.27388 16.3056 5.2723 16.4393 5.14505L17.7368 3.90498C17.8045 3.84044 17.8422 3.75301 17.8417 3.66205C17.8411 3.57108 17.8023 3.48408 17.7338 3.42029C13.0028 -0.873414 5.53909 -0.873414 0.808083 3.42029C0.739551 3.48403 0.700659 3.57101 0.70002 3.66197C0.699396 3.75294 0.737055 3.84039 0.804695 3.90498L2.10258 5.14505C2.23617 5.27249 2.45328 5.27408 2.58894 5.14859C4.39168 3.52563 6.78395 2.62062 9.27131 2.62062ZM9.26954 6.76274C10.6269 6.76266 11.9357 7.26492 12.9418 8.17194C13.0779 8.30066 13.2923 8.29787 13.425 8.16565L14.7122 6.87077C14.78 6.80285 14.8176 6.71071 14.8167 6.61497C14.8157 6.51922 14.7762 6.42786 14.707 6.36133C11.6432 3.52402 6.89847 3.52402 3.83463 6.36133C3.76543 6.42786 3.72594 6.51927 3.72501 6.61504C3.72412 6.71082 3.76188 6.80295 3.82981 6.87077L5.11671 8.16565C5.24936 8.29787 5.46372 8.30066 5.5998 8.17194C6.60525 7.26552 7.91312 6.7633 9.26954 6.76274ZM11.6892 9.78009C11.7565 9.70765 11.7935 9.60796 11.7916 9.50456C11.7897 9.40116 11.7489 9.30322 11.679 9.23385C10.2889 7.94429 8.25299 7.94429 6.86289 9.23385C6.79291 9.30316 6.75209 9.40107 6.7501 9.50447C6.74811 9.60787 6.78508 9.70759 6.85233 9.78009L9.02937 12.1894C9.09317 12.2602 9.18017 12.3 9.27094 12.3C9.36171 12.3 9.44871 12.2602 9.51252 12.1894L11.6892 9.78009Z"
            fill="#FCFCFC" />

    </g>

    <g id="CellularConnection">
        <path id="Cellular Connection"
            d="M1.06668 7.50001H2.13333C2.72244 7.50001 3.20001 8.01488 3.20001 8.65001V10.95C3.20001 11.5851 2.72244 12.1 2.13333 12.1H1.06668C0.477577 12.1 0 11.5851 0 10.95V8.65001C0 8.01488 0.477577 7.50001 1.06668 7.50001ZM6.36667 5.10001H7.43332C8.02242 5.10001 8.5 5.62234 8.5 6.26667V10.9333C8.5 11.5777 8.02242 12.1 7.43332 12.1H6.36667C5.77756 12.1 5.29999 11.5777 5.29999 10.9333V6.26667C5.29999 5.62234 5.77756 5.10001 6.36667 5.10001ZM11.7667 2.50001H12.8333C13.4224 2.50001 13.9 3.01577 13.9 3.65201V10.948C13.9 11.5842 13.4224 12.1 12.8333 12.1H11.7667C11.1776 12.1 10.7 11.5842 10.7 10.948V3.65201C10.7 3.01577 11.1776 2.50001 11.7667 2.50001ZM18.1333 0.100006C18.7224 0.100006 19.2 0.603686 19.2 1.22501V10.975C19.2 11.5963 18.7224 12.1 18.1333 12.1H17.0667C16.4776 12.1 16 11.5963 16 10.975V1.22501C16 0.603686 16.4776 0.100006 17.0667 0.100006H18.1333Z"
            fill="#FCFCFC" />

    </g>


    <!-- SocialMetrics -->
    <g id="BellSimple">
        <path id="Vector" d="M7.66667 17.5H12.6667" stroke="#9F9F9F" stroke-width="1.5"
            stroke-linecap="round" stroke-linejoin="round" />
        <path id="Vector_2"
            d="M4.54167 8.125C4.54167 6.63316 5.1343 5.20242 6.18919 4.14752C7.24408 3.09263 8.67482 2.5 10.1667 2.5C11.6585 2.5 13.0892 3.09263 14.1441 4.14752C15.199 5.20242 15.7917 6.63316 15.7917 8.125C15.7917 10.9234 16.4401 13.1719 16.9557 14.0625C17.0105 14.1574 17.0394 14.2649 17.0395 14.3745C17.0396 14.484 17.0109 14.5916 16.9563 14.6865C16.9017 14.7815 16.8231 14.8604 16.7284 14.9154C16.6337 14.9705 16.5262 14.9996 16.4167 15H3.91667C3.80728 14.9993 3.69997 14.97 3.60548 14.9149C3.51099 14.8597 3.43263 14.7808 3.37822 14.6859C3.32381 14.591 3.29526 14.4835 3.29543 14.3741C3.29559 14.2647 3.32447 14.1572 3.37917 14.0625C3.89401 13.1719 4.54167 10.9227 4.54167 8.125Z"
            stroke="#9F9F9F" stroke-width="1.5" stroke-linecap="round" stroke-linejoin="round" />
    </g>

    <g id="Users">
        <path id="Vector"
            d="M0.799225 15.625C1.42351 14.6651 2.27766 13.8764 3.28412 13.3304C4.29058 12.7844 5.41748 12.4984 6.56251 12.4984C7.70754 12.4984 8.83443 12.7844 9.84089 13.3304C10.8474 13.8764 11.7015 14.6651 12.3258 15.625"
            stroke="#9F9F9F" stroke-width="1.5" stroke-linecap="round" stroke-linejoin="round" />
        <path id="Vector_2"
            d="M13.4375 12.5C14.5825 12.4993 15.7095 12.7849 16.716 13.3306C17.7225 13.8764 18.5767 14.6651 19.2008 15.625"
            stroke="#9F9F9F" stroke-width="1.5" stroke-linecap="round" stroke-linejoin="round" />
        <path id="Vector_3"
            d="M6.56251 12.5C8.80616 12.5 10.625 10.6812 10.625 8.4375C10.625 6.19384 8.80616 4.375 6.56251 4.375C4.31885 4.375 2.50001 6.19384 2.50001 8.4375C2.50001 10.6812 4.31885 12.5 6.56251 12.5Z"
            stroke="#9F9F9F" stroke-width="1.5" stroke-linecap="round" stroke-linejoin="round" />
        <path id="Vector_4"
            d="M11.9289 4.66406C12.4846 4.44242 13.0824 4.34625 13.6796 4.38244C14.2768 4.41862 14.8586 4.58626 15.3835 4.87338C15.9084 5.16051 16.3634 5.56002 16.716 6.04337C17.0686 6.52672 17.3101 7.08198 17.4232 7.66948C17.5363 8.25698 17.5182 8.86221 17.3703 9.44192C17.2224 10.0216 16.9482 10.5615 16.5675 11.023C16.1867 11.4845 15.7087 11.8562 15.1676 12.1115C14.6266 12.3668 14.0358 12.4995 13.4375 12.5"
            stroke="#9F9F9F" stroke-width="1.5" stroke-linecap="round" stroke-linejoin="round" />
    </g>


    <g id="Heart">
        <path id="Vector"
            d="M10.3333 17.5C10.3333 17.5 2.20834 13.125 2.20834 7.96875C2.20834 6.84987 2.65281 5.77681 3.44398 4.98564C4.23515 4.19447 5.3082 3.75 6.42709 3.75C8.19193 3.75 9.70365 4.71172 10.3333 6.25C10.963 4.71172 12.4747 3.75 14.2396 3.75C15.3585 3.75 16.4315 4.19447 17.2227 4.98564C18.0139 5.77681 18.4583 6.84987 18.4583 7.96875C18.4583 13.125 10.3333 17.5 10.3333 17.5Z"
            stroke="#9F9F9F" stroke-width="1.5" stroke-linecap="round" stroke-linejoin="round" />
    </g>


    <!-- Menu items -->
    <g id="House">
        <path id="Vector"
            d="M24.687 11.8869L15.937 3.13688C15.6089 2.80894 15.1639 2.62473 14.7 2.62473C14.2361 2.62473 13.7911 2.80894 13.463 3.13688L4.71296 11.8869C4.54967 12.049 4.42023 12.2419 4.33217 12.4544C4.2441 12.667 4.19917 12.8949 4.19999 13.125V23.625C4.19999 23.8571 4.29218 24.0796 4.45627 24.2437C4.62037 24.4078 4.84293 24.5 5.07499 24.5H12.075C12.3071 24.5 12.5296 24.4078 12.6937 24.2437C12.8578 24.0796 12.95 23.8571 12.95 23.625V17.5H16.45V23.625C16.45 23.8571 16.5422 24.0796 16.7063 24.2437C16.8704 24.4078 17.0929 24.5 17.325 24.5H24.325C24.5571 24.5 24.7796 24.4078 24.9437 24.2437C25.1078 24.0796 25.2 23.8571 25.2 23.625V13.125C25.2008 12.8949 25.1559 12.667 25.0678 12.4544C24.9798 12.2419 24.8503 12.049 24.687 11.8869ZM23.45 22.75H18.2V16.625C18.2 16.3929 18.1078 16.1704 17.9437 16.0063C17.7796 15.8422 17.5571 15.75 17.325 15.75H12.075C11.8429 15.75 11.6204 15.8422 11.4563 16.0063C11.2922 16.1704 11.2 16.3929 11.2 16.625V22.75H5.94999V13.125L14.7 4.37501L23.45 13.125V22.75Z"
            fill="#9F9F9F" />
    </g>

    <g id="MagnifyingGlass">
        <path id="Vector"
            d="M25.2191 23.8809L19.7427 18.4056C21.3299 16.5 22.1214 14.0558 21.9525 11.5814C21.7836 9.10709 20.6672 6.79313 18.8357 5.12091C17.0041 3.4487 14.5984 2.54697 12.1189 2.60332C9.63944 2.65967 7.27715 3.66976 5.52345 5.42345C3.76975 7.17715 2.75967 9.53944 2.70332 12.0189C2.64697 14.4984 3.54869 16.9041 5.22091 18.7357C6.89313 20.5672 9.20709 21.6836 11.6814 21.8525C14.1558 22.0214 16.6 21.2299 18.5056 19.6427L23.9809 25.1191C24.0622 25.2004 24.1588 25.2649 24.265 25.3088C24.3712 25.3528 24.485 25.3755 24.6 25.3755C24.715 25.3755 24.8288 25.3528 24.935 25.3088C25.0413 25.2649 25.1378 25.2004 25.2191 25.1191C25.3004 25.0378 25.3649 24.9413 25.4088 24.835C25.4528 24.7288 25.4755 24.615 25.4755 24.5C25.4755 24.385 25.4528 24.2712 25.4088 24.165C25.3649 24.0588 25.3004 23.9622 25.2191 23.8809ZM4.475 12.25C4.475 10.6925 4.93686 9.16993 5.80218 7.87489C6.6675 6.57985 7.8974 5.57049 9.33637 4.97445C10.7753 4.37841 12.3587 4.22246 13.8863 4.52632C15.4139 4.83018 16.8171 5.5802 17.9185 6.68154C19.0198 7.78288 19.7698 9.18607 20.0737 10.7137C20.3775 12.2413 20.2216 13.8247 19.6256 15.2636C19.0295 16.7026 18.0202 17.9325 16.7251 18.7978C15.4301 19.6631 13.9075 20.125 12.35 20.125C10.2621 20.1227 8.26044 19.2923 6.7841 17.8159C5.30775 16.3396 4.47732 14.3379 4.475 12.25Z"
            fill="#9F9F9F" />
    </g>

    <g id="UserCircle">
        <path id="Vector"
            d="M19.1126 13.125C19.1126 14.0768 18.8303 15.0073 18.3015 15.7987C17.7727 16.5901 17.0211 17.2069 16.1417 17.5712C15.2623 17.9354 14.2947 18.0307 13.3612 17.845C12.4276 17.6593 11.5701 17.201 10.8971 16.528C10.2241 15.8549 9.76572 14.9974 9.58003 14.0639C9.39433 13.1303 9.48964 12.1627 9.85388 11.2833C10.2181 10.404 10.835 9.65236 11.6264 9.12355C12.4178 8.59475 13.3482 8.3125 14.3001 8.3125C15.576 8.31395 16.7992 8.82144 17.7014 9.72365C18.6036 10.6259 19.1111 11.8491 19.1126 13.125ZM25.6751 14C25.6751 16.2498 25.0079 18.449 23.758 20.3196C22.5081 22.1902 20.7316 23.6482 18.6531 24.5091C16.5746 25.3701 14.2874 25.5953 12.0809 25.1564C9.87437 24.7175 7.84754 23.6342 6.25671 22.0433C4.66589 20.4525 3.58253 18.4257 3.14362 16.2192C2.70471 14.0126 2.92998 11.7255 3.79092 9.64698C4.65187 7.56847 6.10983 5.79193 7.98044 4.54203C9.85105 3.29213 12.0503 2.625 14.3001 2.625C17.3159 2.62818 20.2073 3.82764 22.3399 5.96018C24.4724 8.09271 25.6719 10.9841 25.6751 14ZM23.9251 14C23.9237 12.7045 23.661 11.4226 23.1528 10.2309C22.6446 9.03922 21.9013 7.96227 20.9673 7.06446C20.0334 6.16665 18.928 5.4664 17.7172 5.00561C16.5064 4.54482 15.2151 4.33295 13.9205 4.38266C8.76896 4.58172 4.66084 8.8725 4.67505 14.0273C4.67999 16.374 5.54548 18.6374 7.10755 20.3886C7.7437 19.4659 8.55179 18.6745 9.48755 18.0578C9.56734 18.0051 9.66219 17.98 9.75759 17.9863C9.85299 17.9927 9.9437 18.0301 10.0158 18.0928C11.2049 19.1213 12.7246 19.6873 14.2968 19.6873C15.869 19.6873 17.3886 19.1213 18.5777 18.0928C18.6498 18.0301 18.7406 17.9927 18.836 17.9863C18.9314 17.98 19.0262 18.0051 19.106 18.0578C20.0429 18.6742 20.8522 19.4656 21.4893 20.3886C23.0591 18.631 23.9262 16.3566 23.9251 14Z"
            fill="white" />
    </g>

    <g id="PlusCircle">
        <path id="Vector"
            d="M14.5 2.625C12.2502 2.625 10.051 3.29213 8.18039 4.54203C6.30978 5.79193 4.85182 7.56847 3.99087 9.64698C3.12993 11.7255 2.90466 14.0126 3.34357 16.2192C3.78248 18.4257 4.86584 20.4525 6.45666 22.0433C8.04749 23.6342 10.0743 24.7175 12.2809 25.1564C14.4874 25.5953 16.7745 25.3701 18.853 24.5091C20.9315 23.6482 22.7081 22.1902 23.958 20.3196C25.2079 18.449 25.875 16.2498 25.875 14C25.8718 10.9841 24.6724 8.09271 22.5398 5.96018C20.4073 3.82764 17.5159 2.62818 14.5 2.625ZM14.5 23.625C12.5964 23.625 10.7355 23.0605 9.15264 22.0029C7.56982 20.9453 6.33616 19.4421 5.60766 17.6833C4.87917 15.9246 4.68856 13.9893 5.05995 12.1223C5.43133 10.2552 6.34802 8.54018 7.6941 7.1941C9.04018 5.84802 10.7552 4.93132 12.6223 4.55994C14.4893 4.18856 16.4246 4.37917 18.1833 5.10766C19.9421 5.83615 21.4453 7.06981 22.5029 8.65264C23.5605 10.2355 24.125 12.0964 24.125 14C24.1221 16.5518 23.1071 18.9983 21.3027 20.8027C19.4983 22.6071 17.0518 23.6221 14.5 23.625ZM19.75 14C19.75 14.2321 19.6578 14.4546 19.4937 14.6187C19.3296 14.7828 19.1071 14.875 18.875 14.875H15.375V18.375C15.375 18.6071 15.2828 18.8296 15.1187 18.9937C14.9546 19.1578 14.7321 19.25 14.5 19.25C14.2679 19.25 14.0454 19.1578 13.8813 18.9937C13.7172 18.8296 13.625 18.6071 13.625 18.375V14.875H10.125C9.89294 14.875 9.67038 14.7828 9.50629 14.6187C9.34219 14.4546 9.25 14.2321 9.25 14C9.25 13.7679 9.34219 13.5454 9.50629 13.3813C9.67038 13.2172 9.89294 13.125 10.125 13.125H13.625V9.625C13.625 9.39294 13.7172 9.17038 13.8813 9.00628C14.0454 8.84219 14.2679 8.75 14.5 8.75C14.7321 8.75 14.9546 8.84219 15.1187 9.00628C15.2828 9.17038 15.375 9.39294 15.375 9.625V13.125H18.875C19.1071 13.125 19.3296 13.2172 19.4937 13.3813C19.6578 13.5454 19.75 13.7679 19.75 14Z"
            fill="#9F9F9F" />
    </g>

    <g id="ChatCenteredText">
        <path id="Vector"
            d="M10.525 11.375C10.525 11.1429 10.6172 10.9204 10.7813 10.7563C10.9454 10.5922 11.168 10.5 11.4 10.5H18.4C18.6321 10.5 18.8546 10.5922 19.0187 10.7563C19.1828 10.9204 19.275 11.1429 19.275 11.375C19.275 11.6071 19.1828 11.8296 19.0187 11.9937C18.8546 12.1578 18.6321 12.25 18.4 12.25H11.4C11.168 12.25 10.9454 12.1578 10.7813 11.9937C10.6172 11.8296 10.525 11.6071 10.525 11.375ZM11.4 15.75H18.4C18.6321 15.75 18.8546 15.6578 19.0187 15.4937C19.1828 15.3296 19.275 15.1071 19.275 14.875C19.275 14.6429 19.1828 14.4204 19.0187 14.2563C18.8546 14.0922 18.6321 14 18.4 14H11.4C11.168 14 10.9454 14.0922 10.7813 14.2563C10.6172 14.4204 10.525 14.6429 10.525 14.875C10.525 15.1071 10.6172 15.3296 10.7813 15.4937C10.9454 15.6578 11.168 15.75 11.4 15.75ZM26.275 6.125V20.125C26.275 20.5891 26.0906 21.0342 25.7625 21.3624C25.4343 21.6906 24.9891 21.875 24.525 21.875H17.9155L16.4192 24.4934C16.2661 24.7612 16.045 24.9837 15.7782 25.1385C15.5114 25.2933 15.2085 25.3748 14.9 25.3748C14.5916 25.3748 14.2886 25.2933 14.0218 25.1385C13.755 24.9837 13.5339 24.7612 13.3808 24.4934L11.8845 21.875H5.27502C4.81089 21.875 4.36577 21.6906 4.03758 21.3624C3.70939 21.0342 3.52502 20.5891 3.52502 20.125V6.125C3.52502 5.66087 3.70939 5.21575 4.03758 4.88756C4.36577 4.55937 4.81089 4.375 5.27502 4.375H24.525C24.9891 4.375 25.4343 4.55937 25.7625 4.88756C26.0906 5.21575 26.275 5.66087 26.275 6.125ZM24.525 6.125H5.27502V20.125H12.392C12.547 20.1236 12.6995 20.1634 12.834 20.2403C12.9685 20.3171 13.0802 20.4283 13.1577 20.5625L14.9077 23.625L16.6577 20.5625C16.7351 20.4283 16.8468 20.3171 16.9813 20.2403C17.1159 20.1634 17.2684 20.1236 17.4233 20.125H24.525V6.125Z"
            fill="#9F9F9F" />
    </g>


    <!-- main page -->
    <g id="CaretDown">
        <path id="Vector" d="M16.25 7.5L10 13.75L3.75 7.5" stroke="white" stroke-width="2"
            stroke-linecap="round" stroke-linejoin="round" />
    </g>
    
    <g id="Eye">
        <path id="Vector"
            d="M9 3.9375C3.375 3.9375 1.125 9 1.125 9C1.125 9 3.375 14.0625 9 14.0625C14.625 14.0625 16.875 9 16.875 9C16.875 9 14.625 3.9375 9 3.9375Z"
            stroke="white" stroke-width="1.5" stroke-linecap="round" stroke-linejoin="round" />
        <path id="Vector_2"
            d="M9 11.8125C10.5533 11.8125 11.8125 10.5533 11.8125 9C11.8125 7.4467 10.5533 6.1875 9 6.1875C7.4467 6.1875 6.1875 7.4467 6.1875 9C6.1875 10.5533 7.4467 11.8125 9 11.8125Z"
            stroke="white" stroke-width="1.5" stroke-linecap="round" stroke-linejoin="round" />
    </g>

    <g id="PushPin">
        <path id="Vector"
            d="M16.5466 7.3125L12.787 11.0848C13.1077 11.9756 13.2406 13.4677 11.8596 15.3035C11.763 15.4326 11.6397 15.5393 11.4981 15.6164C11.3565 15.6934 11.1999 15.739 11.0391 15.75C11.0124 15.75 10.9863 15.75 10.9596 15.75C10.8118 15.75 10.6654 15.7209 10.5288 15.6643C10.3923 15.6077 10.2682 15.5248 10.1637 15.4202L6.7704 12.0234L3.77297 15.023C3.66743 15.1285 3.52427 15.1878 3.37501 15.1878C3.22574 15.1878 3.08258 15.1285 2.97704 15.023C2.87149 14.9174 2.81219 14.7743 2.81219 14.625C2.81219 14.4757 2.87149 14.3326 2.97704 14.227L5.97657 11.2296L2.58047 7.83352C2.46885 7.72175 2.38201 7.58772 2.32561 7.44017C2.26921 7.29262 2.24452 7.13484 2.25314 6.97711C2.26176 6.81938 2.30351 6.66523 2.37565 6.5247C2.4478 6.38418 2.54873 6.26042 2.67188 6.16148C4.45922 4.71938 6.16993 5.00273 6.91876 5.23758L10.6875 1.45547C10.792 1.35098 10.916 1.26809 11.0525 1.21153C11.189 1.15498 11.3353 1.12587 11.4831 1.12587C11.6309 1.12587 11.7772 1.15498 11.9137 1.21153C12.0502 1.26809 12.1742 1.35098 12.2787 1.45547L16.5459 5.72203C16.7569 5.9329 16.8754 6.21888 16.8755 6.51712C16.8757 6.81536 16.7574 7.10145 16.5466 7.3125Z"
            fill="white" />
    </g>

    <g id="ShareFat">
        <path id="Vector"
            d="M2.89969 18.63C4.44281 16.9866 8.49375 13.5 14.25 13.5V18L21.75 10.5L14.25 3V7.5C9.3 7.5 2.95406 12.2297 2.25 18.3319C2.24025 18.4109 2.25591 18.491 2.2947 18.5605C2.3335 18.63 2.39341 18.6854 2.46578 18.7186C2.53814 18.7518 2.6192 18.7611 2.69721 18.7452C2.77522 18.7293 2.84613 18.6889 2.89969 18.63Z"
            stroke="#9F9F9F" stroke-width="1.5" stroke-linecap="round" stroke-linejoin="round" />
    </g>
    <g id="CircleOutline">
        <path id="Shape" fill-rule="evenodd" clip-rule="evenodd" d="M3.8 14C3.8 8.36671 8.36669 3.80001 14 3.80001C19.6333 3.80001 24.2 8.36671 24.2 14C24.2 19.6333 19.6333 24.2 14 24.2C8.36669 24.2 3.8 19.6333 3.8 14ZM14 2.20001C7.48304 2.20001 2.2 7.48305 2.2 14C2.2 20.517 7.48304 25.8 14 25.8C20.517 25.8 25.8 20.517 25.8 14C25.8 7.48305 20.517 2.20001 14 2.20001ZM14 15.25C14.6904 15.25 15.25 14.6904 15.25 14C15.25 13.3097 14.6904 12.75 14 12.75C13.3097 12.75 12.75 13.3097 12.75 14C12.75 14.6904 13.3097 15.25 14 15.25ZM10.25 14C10.25 14.6904 9.6904 15.25 9.00005 15.25C8.30969 15.25 7.75005 14.6904 7.75005 14C7.75005 13.3097 8.30969 12.75 9.00005 12.75C9.6904 12.75 10.25 13.3097 10.25 14ZM19 15.25C19.6904 15.25 20.25 14.6904 20.25 14C20.25 13.3097 19.6904 12.75 19 12.75C18.3097 12.75 17.75 13.3097 17.75 14C17.75 14.6904 18.3097 15.25 19 15.25Z" fill="#007AFF"/>
        </g>

</svg>